<svg width="66" height="66" viewBox="0 0 66 66" fill="none" xmlns="http://www.w3.org/2000/svg">
<path d="M32.934 19.4308C38.7571 19.4308 44.3417 21.744 48.4593 25.8616C52.5768 29.9791 54.89 35.5637 54.89 41.3868C54.89 47.2099 52.5768 52.7945 48.4593 56.912C44.3417 61.0296 38.7571 63.3428 32.934 63.3428C27.1109 63.3428 21.5263 61.0296 17.4088 56.912C13.2912 52.7945 10.978 47.2099 10.978 41.3868C10.978 35.5637 13.2912 29.9791 17.4088 25.8616C21.5263 21.744 27.1109 19.4308 32.934 19.4308ZM32.934 29.0366L29.3058 36.3918L21.1876 37.572L27.0608 43.2942L25.6748 51.3795L32.934 47.5619L40.1932 51.3768L38.8073 43.2942L44.6805 37.5692L36.5623 36.3891L32.934 29.0366ZM35.6785 5.70557L49.401 5.70831V13.9418L45.6603 17.0651C42.5568 15.4351 39.1672 14.4212 35.6785 14.079V5.70557ZM30.1895 5.70557V14.0763C26.7017 14.4188 23.3132 15.4327 20.2105 17.0623L16.467 13.9418V5.70831L30.1895 5.70557Z" fill="#FBFBFB"/>
</svg>
