<svg width="66" height="66" viewBox="0 0 66 66" fill="none" xmlns="http://www.w3.org/2000/svg">
<path d="M25.8763 8.38916H39.4953C40.5789 8.38916 41.6182 8.81962 42.3844 9.58584C43.1506 10.3521 43.5811 11.3913 43.5811 12.4749C43.5811 15.0033 42.5767 17.4281 40.7888 19.216C39.001 21.0038 36.5761 22.0082 34.0477 22.0082H31.3239C28.7955 22.0082 26.3706 21.0038 24.5828 19.216C22.7949 17.4281 21.7905 15.0033 21.7905 12.4749C21.7905 11.3913 22.221 10.3521 22.9872 9.58584C23.7534 8.81962 24.7927 8.38916 25.8763 8.38916Z" stroke="#FBFBFB" stroke-width="3.31628" stroke-linecap="round" stroke-linejoin="round"/>
<path d="M10.8953 46.5227V43.7988C10.8953 38.0196 13.191 32.4771 17.2776 28.3906C21.3641 24.3041 26.9066 22.0083 32.6858 22.0083C38.465 22.0083 44.0075 24.3041 48.0941 28.3906C52.1806 32.4771 54.4764 38.0196 54.4764 43.7988V46.5227C54.4764 49.4123 53.3285 52.1835 51.2852 54.2268C49.2419 56.27 46.4707 57.4179 43.5811 57.4179H21.7905C18.9009 57.4179 16.1297 56.27 14.0864 54.2268C12.0432 52.1835 10.8953 49.4123 10.8953 46.5227Z" stroke="#FBFBFB" stroke-width="3.31628" stroke-linecap="round" stroke-linejoin="round"/>
</svg>
