<svg width="70" height="70" viewBox="0 0 70 70" fill="none" xmlns="http://www.w3.org/2000/svg">
<path d="M34.9999 6.06641C36.0946 6.06641 37.1738 6.12571 38.2374 6.24432C38.6181 6.28646 38.9868 6.40316 39.3225 6.58779C39.6581 6.77241 39.954 7.02133 40.1935 7.32033C40.4329 7.61934 40.6111 7.96257 40.7178 8.33044C40.8246 8.6983 40.8579 9.0836 40.8158 9.46432C40.7736 9.84505 40.6569 10.2137 40.4723 10.5494C40.2877 10.885 40.0387 11.181 39.7397 11.4204C39.4407 11.6598 39.0975 11.838 38.7296 11.9447C38.3618 12.0515 37.9765 12.0848 37.5958 12.0427C32.7892 11.505 27.9344 12.4741 23.7027 14.8162C19.4711 17.1582 16.0718 20.7573 13.975 25.1157C11.8783 29.4741 11.1877 34.3764 11.9988 39.1444C12.8099 43.9124 15.0826 48.3106 18.5025 51.7305C21.9224 55.1504 26.3206 57.4231 31.0886 58.2342C35.8566 59.0453 40.7589 58.3547 45.1173 56.258C49.4756 54.1612 53.0748 50.7619 55.4168 46.5303C57.7588 42.2986 58.728 37.4438 58.1903 32.6372C58.1482 32.2565 58.1815 31.8712 58.2882 31.5034C58.395 31.1355 58.5732 30.7923 58.8126 30.4932C59.2961 29.8894 59.9998 29.5023 60.7687 29.4172C61.5376 29.3321 62.3088 29.556 62.9127 30.0395C63.2117 30.2789 63.4606 30.5749 63.6452 30.9105C63.8298 31.2462 63.9465 31.6148 63.9887 31.9956C64.1053 33.0592 64.1646 34.1383 64.1666 35.2331C64.1666 51.3418 51.1087 64.3997 34.9999 64.3997C18.8912 64.3997 5.83325 51.3418 5.83325 35.2331C5.83325 19.1243 18.8912 6.06641 34.9999 6.06641ZM34.9066 23.2077C35.0988 23.9564 34.9859 24.7509 34.5927 25.4165C34.1995 26.082 33.5581 26.5643 32.8095 26.7572C30.7529 27.296 28.9625 28.5646 27.7725 30.3264C26.5825 32.0882 26.0742 34.2227 26.3424 36.3318C26.6106 38.4408 27.6369 40.3802 29.23 41.7881C30.823 43.196 32.8739 43.9762 34.9999 43.9831C36.9404 43.9839 38.8261 43.3396 40.3604 42.1517C41.8947 40.9637 42.9906 39.2994 43.4757 37.4206C43.6825 36.6866 44.1684 36.0628 44.8295 35.6827C45.4906 35.3027 46.2742 35.1967 47.0125 35.3873C47.7508 35.578 48.3851 36.0503 48.7795 36.7029C49.1738 37.3555 49.2969 38.1366 49.1224 38.8789C48.2277 42.3087 46.1149 45.2954 43.1787 47.2812C40.2425 49.2669 36.6839 50.1157 33.1675 49.6691C29.6512 49.2225 26.4177 47.511 24.0712 44.8544C21.7246 42.1977 20.4255 38.7776 20.4166 35.2331C20.4161 31.9996 21.4902 28.8577 23.4701 26.3013C25.45 23.7449 28.2233 21.9189 31.3541 21.1106C31.725 21.015 32.1112 20.9934 32.4905 21.047C32.8698 21.1007 33.2348 21.2285 33.5647 21.4232C33.8946 21.618 34.1829 21.8758 34.4132 22.182C34.6434 22.4881 34.8111 22.8367 34.9066 23.2077ZM53.9699 6.43682C54.5023 6.65755 54.9573 7.03106 55.2776 7.51018C55.5979 7.98931 55.7691 8.55259 55.7695 9.12891V14.4664H61.1041C61.6809 14.4665 62.2446 14.6377 62.7242 14.9582C63.2037 15.2786 63.5774 15.7341 63.7981 16.267C64.0188 16.7999 64.0766 17.3862 63.9641 17.9519C63.8516 18.5176 63.5739 19.0373 63.1662 19.4452L52.8499 29.7497C52.3031 30.2968 51.5613 30.6042 50.7878 30.6043H43.7499L38.4183 35.9389C37.871 36.4862 37.1287 36.7937 36.3547 36.7937C35.5807 36.7937 34.8385 36.4862 34.2912 35.9389C33.7439 35.3916 33.4364 34.6493 33.4364 33.8754C33.4364 33.1014 33.7439 32.3591 34.2912 31.8118L39.6258 26.4831V19.4422C39.6259 18.6688 39.9333 17.927 40.4803 17.3802L50.7907 7.06682C51.1986 6.65869 51.7184 6.3807 52.2843 6.26804C52.8502 6.15538 53.4368 6.2131 53.9699 6.43391M49.9362 16.1668L45.4591 20.6497V24.7739H49.5832L54.0632 20.2968H52.8528C52.0793 20.2968 51.3374 19.9895 50.7904 19.4426C50.2435 18.8956 49.9362 18.1537 49.9362 17.3802V16.1668Z" fill="#FBFBFB"/>
</svg>
