<svg width="70" height="51" viewBox="0 0 70 51" fill="none" xmlns="http://www.w3.org/2000/svg">
<g clip-path="url(#clip0_241_77)">
<path fill-rule="evenodd" clip-rule="evenodd" d="M0.0163574 18.0642C0.0163574 18.0642 1.47337 8.41153 7.66564 5.04224C13.8579 1.67287 21.7804 0.124805 28.9744 6.22608C25.4229 10.1418 19.9592 11.7809 19.9592 11.7809C19.9592 11.7809 6.9372 8.86687 0.0163574 18.0642Z" fill="white" stroke="white" stroke-miterlimit="1.5" stroke-linecap="round" stroke-linejoin="round"/>
<path fill-rule="evenodd" clip-rule="evenodd" d="M15.0408 12.5542C15.0408 12.5542 4.76061 14.0089 0.016404 20.2752C0.00922631 23.2218 0.829812 29.9357 3.17967 31.9872C5.00732 31.9126 7.20802 32.1736 8.73728 32.1736C10.2666 32.1736 0.867068 23.061 15.0408 12.5542Z" fill="white" stroke="white" stroke-miterlimit="1.5" stroke-linecap="round" stroke-linejoin="round"/>
<path fill-rule="evenodd" clip-rule="evenodd" d="M13.7677 37.013C13.7677 37.013 9.29887 31.7422 1.2207 33.6519C5.36479 35.1415 8.74502 36.1727 10.4065 37.796C12.068 37.8342 11.7625 38.1589 13.7677 37.013Z" fill="white" stroke="white" stroke-miterlimit="1.5" stroke-linecap="round" stroke-linejoin="round"/>
<path fill-rule="evenodd" clip-rule="evenodd" d="M69.4642 18.0642C69.4642 18.0642 68.0072 8.41153 61.8149 5.04224C55.6226 1.67287 47.7001 0.124805 40.5061 6.22608C44.0576 10.1418 49.5213 11.7809 49.5213 11.7809C49.5213 11.7809 62.5433 8.86687 69.4642 18.0642Z" fill="white" stroke="white" stroke-miterlimit="1.5" stroke-linecap="round" stroke-linejoin="round"/>
<path fill-rule="evenodd" clip-rule="evenodd" d="M54.4395 12.5542C54.4395 12.5542 64.7198 14.0089 69.464 20.2752C69.4711 23.2218 68.6505 29.9357 66.3007 31.9872C64.473 31.9126 62.2723 32.1736 60.7431 32.1736C59.2138 32.1736 68.6132 23.061 54.4395 12.5542H54.4395Z" fill="white" stroke="white" stroke-miterlimit="1.5" stroke-linecap="round" stroke-linejoin="round"/>
<path fill-rule="evenodd" clip-rule="evenodd" d="M55.7129 37.013C55.7129 37.013 60.1817 31.7422 68.2598 33.6519C64.1158 35.1415 60.7355 36.1727 59.0741 37.796C57.4126 37.8342 57.7181 38.1589 55.713 37.013H55.7129Z" fill="white" stroke="white" stroke-miterlimit="1.5" stroke-linecap="round" stroke-linejoin="round"/>
<path fill-rule="evenodd" clip-rule="evenodd" d="M34.78 48.2491V6.78061L38.8442 6.79223C38.8442 6.79223 45.2179 13.4286 50.398 13.7628C50.4219 14.9563 50.4697 19.3248 50.4697 19.3248C50.4697 19.3248 47.2813 22.3506 47.2347 27.5258C47.2347 28.3185 44.5305 29.0645 43.7845 29.2043C43.7379 29.8105 43.8778 30.9761 45.2299 31.0227C45.2299 32.7012 44.6703 37.2053 44.5771 37.8672C44.4838 38.5292 40.0546 36.9516 36.9774 51.1177C35.905 49.5715 36.1199 49.1123 34.78 48.2491Z" fill="white" stroke="white" stroke-miterlimit="1.5" stroke-linecap="round" stroke-linejoin="round"/>
<path fill-rule="evenodd" clip-rule="evenodd" d="M43.0289 21.2577C43.0289 21.2577 42.0206 18.08 45.4581 16.9953C48.8956 15.9105 47.4442 20.6925 46.8025 20.8606C46.1608 21.0286 46.1456 26.4522 45.9011 26.4217C45.6567 26.3911 44.4956 29.1106 42.3567 26.9564C42.3567 25.5355 43.8998 23.855 43.0289 21.2577Z" fill="black" stroke="black" stroke-miterlimit="1.5" stroke-linecap="round" stroke-linejoin="round"/>
<path fill-rule="evenodd" clip-rule="evenodd" d="M39.1142 32.3943C39.1142 32.3943 40.5166 33.9459 40.7553 35.0799C40.9941 36.2138 39.2037 36.1017 37.5924 44.0022C36.7867 44.7711 36.2795 45.2485 35.6528 43.9355C35.0262 42.6226 38.1891 33.0277 39.1142 32.3943Z" fill="black" stroke="black" stroke-miterlimit="1.5" stroke-linecap="round" stroke-linejoin="round"/>
<path fill-rule="evenodd" clip-rule="evenodd" d="M34.78 48.2491V6.78061L30.7158 6.79223C30.7158 6.79223 24.3421 13.4286 19.162 13.7628C19.1381 14.9563 19.0903 19.3248 19.0903 19.3248C19.0903 19.3248 22.2787 22.3506 22.3253 27.5258C22.3253 28.3185 25.0295 29.0645 25.7755 29.2043C25.8221 29.8105 25.6822 30.9761 24.3301 31.0227C24.3301 32.7012 24.8897 37.2053 24.9829 37.8672C25.0762 38.5292 29.5054 36.9516 32.5826 51.1177C33.655 49.5715 33.4401 49.1123 34.7799 48.2491" fill="white"/>
<path d="M34.78 48.2491V6.78061L30.7158 6.79223C30.7158 6.79223 24.3421 13.4286 19.162 13.7628C19.1381 14.9563 19.0903 19.3248 19.0903 19.3248C19.0903 19.3248 22.2787 22.3506 22.3253 27.5258C22.3253 28.3185 25.0295 29.0645 25.7755 29.2043C25.8221 29.8105 25.6822 30.9761 24.3301 31.0227C24.3301 32.7012 24.8897 37.2053 24.9829 37.8672C25.0762 38.5292 29.5054 36.9516 32.5826 51.1177C33.655 49.5715 33.4401 49.1123 34.7799 48.2491" stroke="white" stroke-miterlimit="1.5" stroke-linecap="round" stroke-linejoin="round"/>
<path fill-rule="evenodd" clip-rule="evenodd" d="M26.5315 21.2577C26.5315 21.2577 27.5398 18.08 24.1023 16.9953C20.6648 15.9105 22.1162 20.6925 22.7579 20.8606C23.3996 21.0286 23.4148 26.4522 23.6593 26.4217C23.9037 26.3911 25.0648 29.1106 27.2037 26.9564C27.2037 25.5355 25.6606 23.855 26.5315 21.2577Z" fill="black" stroke="black" stroke-miterlimit="1.5" stroke-linecap="round" stroke-linejoin="round"/>
<path fill-rule="evenodd" clip-rule="evenodd" d="M30.4459 32.3943C30.4459 32.3943 29.0434 33.9459 28.8047 35.0799C28.566 36.2138 30.3564 36.1017 31.9677 44.0022C32.7734 44.7711 33.2806 45.2485 33.9073 43.9355C34.5339 42.6226 31.3709 33.0277 30.4459 32.3943Z" fill="black" stroke="black" stroke-miterlimit="1.5" stroke-linecap="round" stroke-linejoin="round"/>
</g>
<defs>
<clipPath id="clip0_241_77">
<rect width="70" height="51" fill="white"/>
</clipPath>
</defs>
</svg>
