<svg width="40" height="40" viewBox="0 0 40 40" fill="none" xmlns="http://www.w3.org/2000/svg">
<path d="M6.66675 30C6.66675 28.2319 7.36913 26.5362 8.61937 25.2859C9.86961 24.0357 11.5653 23.3333 13.3334 23.3333H26.6667C28.4349 23.3333 30.1306 24.0357 31.3808 25.2859C32.631 26.5362 33.3334 28.2319 33.3334 30C33.3334 30.884 32.9822 31.7319 32.3571 32.357C31.732 32.9821 30.8841 33.3333 30.0001 33.3333H10.0001C9.11603 33.3333 8.26818 32.9821 7.64306 32.357C7.01794 31.7319 6.66675 30.884 6.66675 30Z" stroke="#FBFBFB" stroke-width="1.97836" stroke-linejoin="round"/>
<path d="M20 16.6667C22.7614 16.6667 25 14.4281 25 11.6667C25 8.90523 22.7614 6.66666 20 6.66666C17.2386 6.66666 15 8.90523 15 11.6667C15 14.4281 17.2386 16.6667 20 16.6667Z" stroke="#FBFBFB" stroke-width="1.97836"/>
</svg>
