<svg width="40" height="40" viewBox="0 0 40 40" fill="none" xmlns="http://www.w3.org/2000/svg">
<path d="M26.6667 30C27.5508 30 28.3986 30.3512 29.0238 30.9763C29.6489 31.6014 30.0001 32.4493 30.0001 33.3333C30.0001 34.2174 29.6489 35.0652 29.0238 35.6904C28.3986 36.3155 27.5508 36.6667 26.6667 36.6667C25.7827 36.6667 24.9348 36.3155 24.3097 35.6904C23.6846 35.0652 23.3334 34.2174 23.3334 33.3333C23.3334 32.4493 23.6846 31.6014 24.3097 30.9763C24.9348 30.3512 25.7827 30 26.6667 30ZM26.6667 31.6667C26.2247 31.6667 25.8008 31.8423 25.4882 32.1548C25.1757 32.4674 25.0001 32.8913 25.0001 33.3333C25.0001 33.7754 25.1757 34.1993 25.4882 34.5118C25.8008 34.8244 26.2247 35 26.6667 35C27.1088 35 27.5327 34.8244 27.8453 34.5118C28.1578 34.1993 28.3334 33.7754 28.3334 33.3333C28.3334 32.8913 28.1578 32.4674 27.8453 32.1548C27.5327 31.8423 27.1088 31.6667 26.6667 31.6667ZM11.6667 30C12.5508 30 13.3986 30.3512 14.0238 30.9763C14.6489 31.6014 15.0001 32.4493 15.0001 33.3333C15.0001 34.2174 14.6489 35.0652 14.0238 35.6904C13.3986 36.3155 12.5508 36.6667 11.6667 36.6667C10.7827 36.6667 9.93485 36.3155 9.30973 35.6904C8.6846 35.0652 8.33342 34.2174 8.33342 33.3333C8.33342 32.4493 8.6846 31.6014 9.30973 30.9763C9.93485 30.3512 10.7827 30 11.6667 30ZM11.6667 31.6667C11.2247 31.6667 10.8008 31.8423 10.4882 32.1548C10.1757 32.4674 10.0001 32.8913 10.0001 33.3333C10.0001 33.7754 10.1757 34.1993 10.4882 34.5118C10.8008 34.8244 11.2247 35 11.6667 35C12.1088 35 12.5327 34.8244 12.8453 34.5118C13.1578 34.1993 13.3334 33.7754 13.3334 33.3333C13.3334 32.8913 13.1578 32.4674 12.8453 32.1548C12.5327 31.8423 12.1088 31.6667 11.6667 31.6667ZM30.0001 10H7.11675L11.3667 20H25.0001C25.5501 20 26.0334 19.7333 26.3334 19.3333L31.3334 12.6667C31.5501 12.3833 31.6667 12.0333 31.6667 11.6667C31.6667 11.2246 31.4912 10.8007 31.1786 10.4882C30.866 10.1756 30.4421 10 30.0001 10ZM25.0001 21.6667H11.4501L10.1667 24.2667L10.0001 25C10.0001 25.442 10.1757 25.866 10.4882 26.1785C10.8008 26.4911 11.2247 26.6667 11.6667 26.6667H30.0001V28.3333H11.6667C10.7827 28.3333 9.93485 27.9821 9.30973 27.357C8.6846 26.7319 8.33342 25.8841 8.33342 25C8.33292 24.4345 8.47631 23.8782 8.75008 23.3833L9.95008 20.9333L3.90008 6.66667H1.66675V5H5.00008L6.41675 8.33333H30.0001C30.8841 8.33333 31.732 8.68452 32.3571 9.30964C32.9822 9.93477 33.3334 10.7826 33.3334 11.6667C33.3334 12.5 33.0501 13.2 32.5834 13.7667L27.7334 20.25C27.1334 21.1 26.1334 21.6667 25.0001 21.6667Z" fill="#FBFBFB"/>
</svg>
