<svg width="70" height="70" viewBox="0 0 70 70" fill="none" xmlns="http://www.w3.org/2000/svg">
<path d="M34.9999 6.06635C36.0946 6.06635 37.1738 6.12565 38.2374 6.24426C38.6181 6.28639 38.9868 6.4031 39.3225 6.58773C39.6581 6.77235 39.954 7.02127 40.1935 7.32027C40.4329 7.61928 40.6111 7.96251 40.7178 8.33038C40.8246 8.69824 40.8579 9.08354 40.8158 9.46426C40.7736 9.84499 40.6569 10.2137 40.4723 10.5493C40.2877 10.8849 40.0387 11.1809 39.7397 11.4203C39.4407 11.6597 39.0975 11.8379 38.7296 11.9447C38.3618 12.0515 37.9765 12.0847 37.5958 12.0426C32.7892 11.5049 27.9344 12.4741 23.7027 14.8161C19.4711 17.1582 16.0718 20.7573 13.975 25.1157C11.8783 29.4741 11.1877 34.3763 11.9988 39.1443C12.8099 43.9123 15.0826 48.3105 18.5025 51.7304C21.9224 55.1504 26.3206 57.4231 31.0886 58.2342C35.8566 59.0452 40.7589 58.3547 45.1173 56.2579C49.4756 54.1611 53.0748 50.7618 55.4168 46.5302C57.7588 42.2986 58.728 37.4437 58.1903 32.6372C58.1482 32.2565 58.1815 31.8712 58.2882 31.5033C58.395 31.1354 58.5732 30.7922 58.8126 30.4932C59.2961 29.8893 59.9998 29.5023 60.7687 29.4172C61.5376 29.3321 62.3088 29.5559 62.9127 30.0395C63.2117 30.2789 63.4606 30.5749 63.6452 30.9105C63.8298 31.2461 63.9465 31.6148 63.9887 31.9955C64.1053 33.0591 64.1646 34.1383 64.1666 35.233C64.1666 51.3418 51.1087 64.3997 34.9999 64.3997C18.8912 64.3997 5.83325 51.3418 5.83325 35.233C5.83325 19.1243 18.8912 6.06635 34.9999 6.06635ZM34.9066 23.2076C35.0988 23.9564 34.9859 24.7508 34.5927 25.4164C34.1995 26.082 33.5581 26.5642 32.8095 26.7572C30.7529 27.2959 28.9625 28.5645 27.7725 30.3263C26.5825 32.0881 26.0742 34.2227 26.3424 36.3317C26.6106 38.4407 27.6369 40.3802 29.23 41.7881C30.823 43.1959 32.8739 43.9761 34.9999 43.983C36.9404 43.9838 38.8261 43.3396 40.3604 42.1516C41.8947 40.9637 42.9906 39.2994 43.4757 37.4205C43.6825 36.6865 44.1684 36.0627 44.8295 35.6827C45.4906 35.3026 46.2742 35.1966 47.0125 35.3873C47.7508 35.578 48.3851 36.0502 48.7795 36.7028C49.1738 37.3554 49.2969 38.1366 49.1224 38.8788C48.2277 42.3086 46.1149 45.2954 43.1787 47.2811C40.2425 49.2668 36.6839 50.1157 33.1675 49.6691C29.6512 49.2225 26.4177 47.511 24.0712 44.8543C21.7246 42.1977 20.4255 38.7776 20.4166 35.233C20.4161 31.9996 21.4902 28.8576 23.4701 26.3012C25.45 23.7448 28.2233 21.9189 31.3541 21.1105C31.725 21.0149 32.1112 20.9933 32.4905 21.0469C32.8698 21.1006 33.2348 21.2284 33.5647 21.4232C33.8946 21.6179 34.1829 21.8757 34.4132 22.1819C34.6434 22.4881 34.8111 22.8366 34.9066 23.2076ZM53.9699 6.43676C54.5023 6.65749 54.9573 7.03099 55.2776 7.51012C55.5979 7.98925 55.7691 8.55252 55.7695 9.12884V14.4663H61.1041C61.6809 14.4665 62.2446 14.6376 62.7242 14.9581C63.2037 15.2786 63.5774 15.7341 63.7981 16.2669C64.0188 16.7998 64.0766 17.3862 63.9641 17.9519C63.8516 18.5175 63.5739 19.0372 63.1662 19.4451L52.8499 29.7497C52.3031 30.2967 51.5613 30.6041 50.7878 30.6043H43.7499L38.4183 35.9388C37.871 36.4861 37.1287 36.7936 36.3547 36.7936C35.5807 36.7936 34.8385 36.4861 34.2912 35.9388C33.7439 35.3916 33.4364 34.6493 33.4364 33.8753C33.4364 33.1013 33.7439 32.359 34.2912 31.8118L39.6258 26.483V19.4422C39.6259 18.6687 39.9333 17.9269 40.4803 17.3801L50.7907 7.06676C51.1986 6.65862 51.7184 6.38064 52.2843 6.26798C52.8502 6.15532 53.4368 6.21304 53.9699 6.43384M49.9362 16.1668L45.4591 20.6497V24.7738H49.5832L54.0632 20.2968H52.8528C52.0793 20.2968 51.3374 19.9895 50.7904 19.4425C50.2435 18.8955 49.9362 18.1536 49.9362 17.3801V16.1668Z" fill="#FBFBFB"/>
</svg>
