<svg width="50" height="50" viewBox="0 0 50 50" fill="none" xmlns="http://www.w3.org/2000/svg">
<path d="M8.3335 37.5001C8.3335 35.2899 9.21147 33.1703 10.7743 31.6075C12.3371 30.0447 14.4567 29.1667 16.6668 29.1667H33.3335C35.5436 29.1667 37.6632 30.0447 39.2261 31.6075C40.7889 33.1703 41.6668 35.2899 41.6668 37.5001C41.6668 38.6052 41.2278 39.665 40.4464 40.4464C39.665 41.2278 38.6052 41.6667 37.5002 41.6667H12.5002C11.3951 41.6667 10.3353 41.2278 9.55388 40.4464C8.77248 39.665 8.3335 38.6052 8.3335 37.5001Z" fill="url(#paint0_linear_310_2466)" stroke="url(#paint1_linear_310_2466)" stroke-width="1.97836" stroke-linejoin="round"/>
<path d="M25 20.8334C28.4518 20.8334 31.25 18.0352 31.25 14.5834C31.25 11.1316 28.4518 8.33337 25 8.33337C21.5482 8.33337 18.75 11.1316 18.75 14.5834C18.75 18.0352 21.5482 20.8334 25 20.8334Z" fill="url(#paint2_linear_310_2466)" stroke="url(#paint3_linear_310_2466)" stroke-width="1.97836"/>
<defs>
<linearGradient id="paint0_linear_310_2466" x1="8.3335" y1="35.4167" x2="41.6668" y2="35.4167" gradientUnits="userSpaceOnUse">
<stop stop-color="#FFCD4E"/>
<stop offset="1" stop-color="#FFE092"/>
</linearGradient>
<linearGradient id="paint1_linear_310_2466" x1="8.3335" y1="35.4167" x2="41.6668" y2="35.4167" gradientUnits="userSpaceOnUse">
<stop stop-color="#FFCD4E"/>
<stop offset="1" stop-color="#FFE092"/>
</linearGradient>
<linearGradient id="paint2_linear_310_2466" x1="18.75" y1="14.5834" x2="31.25" y2="14.5834" gradientUnits="userSpaceOnUse">
<stop stop-color="#FFCD4E"/>
<stop offset="1" stop-color="#FFE092"/>
</linearGradient>
<linearGradient id="paint3_linear_310_2466" x1="18.75" y1="14.5834" x2="31.25" y2="14.5834" gradientUnits="userSpaceOnUse">
<stop stop-color="#FFCD4E"/>
<stop offset="1" stop-color="#FFE092"/>
</linearGradient>
</defs>
</svg>
