<svg width="66" height="66" viewBox="0 0 66 66" fill="none" xmlns="http://www.w3.org/2000/svg">
<path d="M25.8763 8.3891H39.4953C40.5789 8.3891 41.6182 8.81956 42.3844 9.58578C43.1506 10.352 43.5811 11.3912 43.5811 12.4748C43.5811 15.0032 42.5767 17.4281 40.7888 19.2159C39.001 21.0038 36.5761 22.0082 34.0477 22.0082H31.3239C28.7955 22.0082 26.3706 21.0038 24.5828 19.2159C22.7949 17.4281 21.7905 15.0032 21.7905 12.4748C21.7905 11.3912 22.221 10.352 22.9872 9.58578C23.7534 8.81956 24.7927 8.3891 25.8763 8.3891Z" stroke="#FBFBFB" stroke-width="3.31628" stroke-linecap="round" stroke-linejoin="round"/>
<path d="M10.8953 46.5225V43.7987C10.8953 38.0195 13.191 32.4769 17.2776 28.3904C21.3641 24.3039 26.9066 22.0081 32.6858 22.0081C38.465 22.0081 44.0075 24.3039 48.0941 28.3904C52.1806 32.4769 54.4764 38.0195 54.4764 43.7987V46.5225C54.4764 49.4121 53.3285 52.1833 51.2852 54.2266C49.2419 56.2699 46.4707 57.4178 43.5811 57.4178H21.7905C18.9009 57.4178 16.1297 56.2699 14.0864 54.2266C12.0432 52.1833 10.8953 49.4121 10.8953 46.5225Z" stroke="#FBFBFB" stroke-width="3.31628" stroke-linecap="round" stroke-linejoin="round"/>
</svg>
