<svg width="1500" height="1500" viewBox="0 0 1500 1500" fill="none" xmlns="http://www.w3.org/2000/svg">
<g opacity="0.04">
<path fill-rule="evenodd" clip-rule="evenodd" d="M5.91797 590.662C5.91797 590.662 37.1397 383.818 169.831 311.619C302.522 239.418 472.291 206.246 626.448 336.987C550.345 420.895 433.264 456.019 433.264 456.019C433.264 456.019 154.222 393.576 5.91797 590.662Z" fill="url(#paint0_radial_241_832)" stroke="url(#paint1_radial_241_832)" stroke-miterlimit="1.5" stroke-linecap="round" stroke-linejoin="round"/>
<path fill-rule="evenodd" clip-rule="evenodd" d="M327.87 472.589C327.87 472.589 107.58 503.761 5.91799 638.039C5.76418 701.181 23.3482 845.051 73.7022 889.011C112.866 887.413 160.024 893.007 192.794 893.007C225.564 893.007 24.1465 697.736 327.87 472.589Z" fill="url(#paint2_radial_241_832)" stroke="url(#paint3_radial_241_832)" stroke-miterlimit="1.5" stroke-linecap="round" stroke-linejoin="round"/>
<path fill-rule="evenodd" clip-rule="evenodd" d="M300.586 996.708C300.586 996.708 204.826 883.761 31.7227 924.684C120.524 956.605 192.958 978.702 228.561 1013.49C264.164 1014.3 257.618 1021.26 300.586 996.708Z" fill="url(#paint4_radial_241_832)" stroke="url(#paint5_radial_241_832)" stroke-miterlimit="1.5" stroke-linecap="round" stroke-linejoin="round"/>
<path fill-rule="evenodd" clip-rule="evenodd" d="M1494.08 590.662C1494.08 590.662 1462.86 383.818 1330.17 311.619C1197.48 239.418 1027.71 206.246 873.552 336.987C949.655 420.895 1066.74 456.019 1066.74 456.019C1066.74 456.019 1345.78 393.576 1494.08 590.662Z" fill="url(#paint6_radial_241_832)" stroke="url(#paint7_radial_241_832)" stroke-miterlimit="1.5" stroke-linecap="round" stroke-linejoin="round"/>
<path fill-rule="evenodd" clip-rule="evenodd" d="M1172.13 472.589C1172.13 472.589 1392.42 503.761 1494.08 638.039C1494.24 701.181 1476.65 845.051 1426.3 889.011C1387.13 887.413 1339.98 893.007 1307.21 893.007C1274.44 893.007 1475.85 697.736 1172.13 472.589H1172.13Z" fill="url(#paint8_radial_241_832)" stroke="url(#paint9_radial_241_832)" stroke-miterlimit="1.5" stroke-linecap="round" stroke-linejoin="round"/>
<path fill-rule="evenodd" clip-rule="evenodd" d="M1199.41 996.708C1199.41 996.708 1295.17 883.761 1468.28 924.684C1379.48 956.605 1307.04 978.702 1271.44 1013.49C1235.84 1014.3 1242.38 1021.26 1199.42 996.708H1199.41Z" fill="url(#paint10_radial_241_832)" stroke="url(#paint11_radial_241_832)" stroke-miterlimit="1.5" stroke-linecap="round" stroke-linejoin="round"/>
<path fill-rule="evenodd" clip-rule="evenodd" d="M750.854 1237.48V348.87L837.943 349.119C837.943 349.119 974.522 491.326 1085.53 498.488C1086.04 524.064 1087.06 617.675 1087.06 617.675C1087.06 617.675 1018.74 682.512 1017.74 793.411C1017.74 810.396 959.792 826.381 943.808 829.378C942.809 842.367 945.806 867.344 974.779 868.343C974.779 904.311 962.789 1000.83 960.791 1015.01C958.793 1029.2 863.88 995.392 797.94 1298.95C774.961 1265.82 779.565 1255.98 750.854 1237.48Z" fill="url(#paint12_radial_241_832)" stroke="url(#paint13_radial_241_832)" stroke-miterlimit="1.5" stroke-linecap="round" stroke-linejoin="round"/>
<path fill-rule="evenodd" clip-rule="evenodd" d="M927.614 659.095C927.614 659.095 906.006 591 979.667 567.756C1053.33 544.512 1022.23 646.982 1008.48 650.584C994.726 654.184 994.399 770.405 989.161 769.75C983.923 769.096 959.042 827.37 913.209 781.208C913.209 750.762 946.275 714.75 927.614 659.095Z" fill="#FBFBFB" stroke="#FBFBFB" stroke-miterlimit="1.5" stroke-linecap="round" stroke-linejoin="round"/>
<path fill-rule="evenodd" clip-rule="evenodd" d="M843.728 897.735C843.728 897.735 873.781 930.984 878.896 955.283C884.011 979.581 845.647 977.18 811.118 1146.48C793.853 1162.95 782.984 1173.18 769.556 1145.05C756.128 1116.91 823.906 911.307 843.728 897.735Z" fill="#FBFBFB" stroke="#FBFBFB" stroke-miterlimit="1.5" stroke-linecap="round" stroke-linejoin="round"/>
<path fill-rule="evenodd" clip-rule="evenodd" d="M750.854 1237.48V348.87L663.765 349.119C663.765 349.119 527.186 491.326 416.183 498.488C415.671 524.064 414.647 617.675 414.647 617.675C414.647 617.675 482.969 682.512 483.968 793.411C483.968 810.396 541.916 826.381 557.9 829.378C558.899 842.367 555.902 867.344 526.929 868.343C526.929 904.311 538.919 1000.83 540.917 1015.01C542.915 1029.2 637.828 995.392 703.768 1298.95C726.747 1265.82 722.142 1255.98 750.853 1237.48" fill="url(#paint14_radial_241_832)"/>
<path d="M750.854 1237.48V348.87L663.765 349.119C663.765 349.119 527.186 491.326 416.183 498.488C415.671 524.064 414.647 617.675 414.647 617.675C414.647 617.675 482.969 682.512 483.968 793.411C483.968 810.396 541.916 826.381 557.9 829.378C558.899 842.367 555.902 867.344 526.929 868.343C526.929 904.311 538.919 1000.83 540.917 1015.01C542.915 1029.2 637.828 995.392 703.768 1298.95C726.747 1265.82 722.142 1255.98 750.853 1237.48" stroke="url(#paint15_radial_241_832)" stroke-miterlimit="1.5" stroke-linecap="round" stroke-linejoin="round"/>
<path fill-rule="evenodd" clip-rule="evenodd" d="M574.096 659.095C574.096 659.095 595.704 591 522.043 567.756C448.381 544.512 479.483 646.982 493.233 650.584C506.984 654.184 507.311 770.405 512.549 769.75C517.787 769.096 542.668 827.37 588.501 781.208C588.501 750.762 555.435 714.75 574.096 659.095Z" fill="#FBFBFB" stroke="#FBFBFB" stroke-miterlimit="1.5" stroke-linecap="round" stroke-linejoin="round"/>
<path fill-rule="evenodd" clip-rule="evenodd" d="M657.98 897.735C657.98 897.735 627.927 930.984 622.812 955.283C617.697 979.581 656.061 977.18 690.59 1146.48C707.855 1162.95 718.724 1173.18 732.152 1145.05C745.581 1116.91 677.802 911.307 657.98 897.735Z" fill="#FBFBFB" stroke="#FBFBFB" stroke-miterlimit="1.5" stroke-linecap="round" stroke-linejoin="round"/>
</g>
<defs>
<radialGradient id="paint0_radial_241_832" cx="0" cy="0" r="1" gradientUnits="userSpaceOnUse" gradientTransform="translate(316.183 419.417) rotate(90) scale(171.245 310.265)">
<stop offset="0.00480771" stop-color="#252525"/>
<stop offset="1" stop-color="#222222"/>
</radialGradient>
<radialGradient id="paint1_radial_241_832" cx="0" cy="0" r="1" gradientUnits="userSpaceOnUse" gradientTransform="translate(316.183 419.417) rotate(90) scale(171.245 310.265)">
<stop offset="0.00480771" stop-color="#252525"/>
<stop offset="1" stop-color="#222222"/>
</radialGradient>
<radialGradient id="paint2_radial_241_832" cx="0" cy="0" r="1" gradientUnits="userSpaceOnUse" gradientTransform="translate(166.894 682.798) rotate(90) scale(210.209 160.977)">
<stop offset="0.00480771" stop-color="#252525"/>
<stop offset="1" stop-color="#222222"/>
</radialGradient>
<radialGradient id="paint3_radial_241_832" cx="0" cy="0" r="1" gradientUnits="userSpaceOnUse" gradientTransform="translate(166.894 682.798) rotate(90) scale(210.209 160.977)">
<stop offset="0.00480771" stop-color="#252525"/>
<stop offset="1" stop-color="#222222"/>
</radialGradient>
<radialGradient id="paint4_radial_241_832" cx="0" cy="0" r="1" gradientUnits="userSpaceOnUse" gradientTransform="translate(166.154 965.382) rotate(90) scale(49.6311 134.432)">
<stop offset="0.00480771" stop-color="#252525"/>
<stop offset="1" stop-color="#222222"/>
</radialGradient>
<radialGradient id="paint5_radial_241_832" cx="0" cy="0" r="1" gradientUnits="userSpaceOnUse" gradientTransform="translate(166.154 965.382) rotate(90) scale(49.6311 134.432)">
<stop offset="0.00480771" stop-color="#252525"/>
<stop offset="1" stop-color="#222222"/>
</radialGradient>
<radialGradient id="paint6_radial_241_832" cx="0" cy="0" r="1" gradientUnits="userSpaceOnUse" gradientTransform="translate(1183.82 419.417) rotate(90) scale(171.245 310.265)">
<stop offset="0.00480771" stop-color="#252525"/>
<stop offset="1" stop-color="#222222"/>
</radialGradient>
<radialGradient id="paint7_radial_241_832" cx="0" cy="0" r="1" gradientUnits="userSpaceOnUse" gradientTransform="translate(1183.82 419.417) rotate(90) scale(171.245 310.265)">
<stop offset="0.00480771" stop-color="#252525"/>
<stop offset="1" stop-color="#222222"/>
</radialGradient>
<radialGradient id="paint8_radial_241_832" cx="0" cy="0" r="1" gradientUnits="userSpaceOnUse" gradientTransform="translate(1333.11 682.798) rotate(90) scale(210.209 160.977)">
<stop offset="0.00480771" stop-color="#252525"/>
<stop offset="1" stop-color="#222222"/>
</radialGradient>
<radialGradient id="paint9_radial_241_832" cx="0" cy="0" r="1" gradientUnits="userSpaceOnUse" gradientTransform="translate(1333.11 682.798) rotate(90) scale(210.209 160.977)">
<stop offset="0.00480771" stop-color="#252525"/>
<stop offset="1" stop-color="#222222"/>
</radialGradient>
<radialGradient id="paint10_radial_241_832" cx="0" cy="0" r="1" gradientUnits="userSpaceOnUse" gradientTransform="translate(1333.85 965.382) rotate(90) scale(49.6311 134.432)">
<stop offset="0.00480771" stop-color="#252525"/>
<stop offset="1" stop-color="#222222"/>
</radialGradient>
<radialGradient id="paint11_radial_241_832" cx="0" cy="0" r="1" gradientUnits="userSpaceOnUse" gradientTransform="translate(1333.85 965.382) rotate(90) scale(49.6311 134.432)">
<stop offset="0.00480771" stop-color="#252525"/>
<stop offset="1" stop-color="#222222"/>
</radialGradient>
<radialGradient id="paint12_radial_241_832" cx="0" cy="0" r="1" gradientUnits="userSpaceOnUse" gradientTransform="translate(918.957 823.911) rotate(90) scale(475.041 168.103)">
<stop offset="0.00480771" stop-color="#252525"/>
<stop offset="1" stop-color="#222222"/>
</radialGradient>
<radialGradient id="paint13_radial_241_832" cx="0" cy="0" r="1" gradientUnits="userSpaceOnUse" gradientTransform="translate(918.957 823.911) rotate(90) scale(475.041 168.103)">
<stop offset="0.00480771" stop-color="#252525"/>
<stop offset="1" stop-color="#222222"/>
</radialGradient>
<radialGradient id="paint14_radial_241_832" cx="0" cy="0" r="1" gradientUnits="userSpaceOnUse" gradientTransform="translate(582.751 823.911) rotate(90) scale(475.041 168.103)">
<stop offset="0.00480771" stop-color="#252525"/>
<stop offset="1" stop-color="#222222"/>
</radialGradient>
<radialGradient id="paint15_radial_241_832" cx="0" cy="0" r="1" gradientUnits="userSpaceOnUse" gradientTransform="translate(582.751 823.911) rotate(90) scale(475.041 168.103)">
<stop offset="0.00480771" stop-color="#252525"/>
<stop offset="1" stop-color="#222222"/>
</radialGradient>
</defs>
</svg>
