<svg width="36" height="36" viewBox="0 0 36 36" fill="none" xmlns="http://www.w3.org/2000/svg">
<path d="M7.5 7.5H27C28.1935 7.5 29.3381 7.97411 30.182 8.81802C31.0259 9.66193 31.5 10.8065 31.5 12V25.5C31.5 26.6935 31.0259 27.8381 30.182 28.682C29.3381 29.5259 28.1935 30 27 30H7.5C6.30653 30 5.16193 29.5259 4.31802 28.682C3.47411 27.8381 3 26.6935 3 25.5V12C3 10.8065 3.47411 9.66193 4.31802 8.81802C5.16193 7.97411 6.30653 7.5 7.5 7.5ZM7.5 9C6.75 9 6.09 9.255 5.58 9.705L17.25 17.25L28.92 9.705C28.41 9.255 27.75 9 27 9H7.5ZM17.25 19.065L4.695 10.92C4.575 11.25 4.5 11.625 4.5 12V25.5C4.5 26.2956 4.81607 27.0587 5.37868 27.6213C5.94129 28.1839 6.70435 28.5 7.5 28.5H27C27.7956 28.5 28.5587 28.1839 29.1213 27.6213C29.6839 27.0587 30 26.2956 30 25.5V12C30 11.625 29.925 11.25 29.805 10.92L17.25 19.065Z" fill="#252525"/>
</svg>
