<svg width="35" height="35" viewBox="0 0 35 35" fill="none" xmlns="http://www.w3.org/2000/svg">
<circle cx="17.5" cy="17.5" r="17.5" fill="url(#paint0_radial_230_20)"/>
<path d="M8.37484 15.4375L7.98766 15.8247L7.60156 15.4375L7.98766 15.0503L8.37484 15.4375ZM26.4217 24.1875C26.4217 24.3326 26.3641 24.4717 26.2615 24.5742C26.159 24.6768 26.0199 24.7344 25.8748 24.7344C25.7298 24.7344 25.5907 24.6768 25.4881 24.5742C25.3856 24.4717 25.328 24.3326 25.328 24.1875H26.4217ZM13.4564 21.2934L7.98766 15.8247L8.76203 15.0503L14.2308 20.5191L13.4564 21.2934ZM7.98766 15.0503L13.4564 9.58157L14.2308 10.3559L8.76203 15.8247L7.98766 15.0503ZM8.37484 14.8906H19.3123V15.9844H8.37484V14.8906ZM26.4217 22V24.1875H25.328V22H26.4217ZM19.3123 14.8906C21.1979 14.8906 23.0062 15.6397 24.3394 16.9729C25.6727 18.3062 26.4217 20.1145 26.4217 22H25.328C25.328 20.4046 24.6942 18.8745 23.566 17.7463C22.4379 16.6182 20.9078 15.9844 19.3123 15.9844V14.8906Z" fill="#FBFBFB"/>
<defs>
<radialGradient id="paint0_radial_230_20" cx="0" cy="0" r="1" gradientUnits="userSpaceOnUse" gradientTransform="translate(17.5 17.5) rotate(90) scale(17.5)">
<stop offset="0.00480771" stop-color="#252525"/>
<stop offset="1" stop-color="#222222"/>
</radialGradient>
</defs>
</svg>
