<svg width="96" height="96" viewBox="0 0 96 96" fill="none" xmlns="http://www.w3.org/2000/svg">
<g clip-path="url(#clip0_241_860)">
<path fill-rule="evenodd" clip-rule="evenodd" d="M0.378906 37.8023C0.378906 37.8023 2.37709 24.5644 10.8693 19.9436C19.3616 15.3228 30.2268 13.1997 40.0928 21.5672C35.2222 26.9373 27.7291 29.1852 27.7291 29.1852C27.7291 29.1852 9.87034 25.1888 0.378906 37.8023Z" fill="black" stroke="black" stroke-miterlimit="1.5" stroke-linecap="round" stroke-linejoin="round"/>
<path fill-rule="evenodd" clip-rule="evenodd" d="M20.9839 30.2457C20.9839 30.2457 6.88531 32.2407 0.37897 40.8345C0.369126 44.8756 1.4945 54.0833 4.71716 56.8967C7.22366 56.7944 10.2418 57.1524 12.339 57.1524C14.4363 57.1524 1.5456 44.6551 20.9839 30.2457Z" fill="black" stroke="black" stroke-miterlimit="1.5" stroke-linecap="round" stroke-linejoin="round"/>
<path fill-rule="evenodd" clip-rule="evenodd" d="M19.2375 63.7893C19.2375 63.7893 13.1089 56.5607 2.03027 59.1798C7.71359 61.2227 12.3493 62.6369 14.6279 64.8631C16.9065 64.9155 16.4876 65.3607 19.2375 63.7893Z" fill="black" stroke="black" stroke-miterlimit="1.5" stroke-linecap="round" stroke-linejoin="round"/>
<path fill-rule="evenodd" clip-rule="evenodd" d="M95.6211 37.8023C95.6211 37.8023 93.623 24.5644 85.1307 19.9436C76.6385 15.3228 65.7733 13.1997 55.9072 21.5672C60.7778 26.9373 68.271 29.1852 68.271 29.1852C68.271 29.1852 86.1297 25.1888 95.6211 37.8023Z" fill="black" stroke="black" stroke-miterlimit="1.5" stroke-linecap="round" stroke-linejoin="round"/>
<path fill-rule="evenodd" clip-rule="evenodd" d="M75.0167 30.2457C75.0167 30.2457 89.1153 32.2407 95.6216 40.8345C95.6315 44.8756 94.5061 54.0833 91.2834 56.8967C88.7769 56.7944 85.7589 57.1524 83.6616 57.1524C81.5643 57.1524 94.4549 44.6551 75.0166 30.2457H75.0167Z" fill="black" stroke="black" stroke-miterlimit="1.5" stroke-linecap="round" stroke-linejoin="round"/>
<path fill-rule="evenodd" clip-rule="evenodd" d="M76.7627 63.7893C76.7627 63.7893 82.8913 56.5607 93.9699 59.1798C88.2866 61.2227 83.6509 62.6369 81.3723 64.8631C79.0937 64.9155 79.5128 65.3607 76.7628 63.7893H76.7627Z" fill="black" stroke="black" stroke-miterlimit="1.5" stroke-linecap="round" stroke-linejoin="round"/>
<path fill-rule="evenodd" clip-rule="evenodd" d="M48.0547 79.1988V22.3277L53.6284 22.3436C53.6284 22.3436 62.3695 31.4449 69.4737 31.9032C69.5064 33.5401 69.5719 39.5312 69.5719 39.5312C69.5719 39.5312 65.1993 43.6808 65.1354 50.7783C65.1354 51.8653 61.4267 52.8884 60.4037 53.0802C60.3398 53.9115 60.5316 55.51 62.3859 55.574C62.3859 57.8759 61.6185 64.053 61.4907 64.9608C61.3628 65.8686 55.2883 63.7051 51.0682 83.1329C49.5975 81.0123 49.8922 80.3826 48.0547 79.1988Z" fill="black" stroke="black" stroke-miterlimit="1.5" stroke-linecap="round" stroke-linejoin="round"/>
<path fill-rule="evenodd" clip-rule="evenodd" d="M59.3672 42.1821C59.3672 42.1821 57.9843 37.824 62.6987 36.3364C67.413 34.8488 65.4225 41.4068 64.5424 41.6374C63.6624 41.8678 63.6415 49.3059 63.3063 49.264C62.971 49.2221 61.3787 52.9517 58.4453 49.9973C58.4453 48.0488 60.5615 45.744 59.3672 42.1821Z" fill="white" stroke="white" stroke-miterlimit="1.5" stroke-linecap="round" stroke-linejoin="round"/>
<path fill-rule="evenodd" clip-rule="evenodd" d="M53.9985 57.4551C53.9985 57.4551 55.9218 59.583 56.2492 61.1381C56.5766 62.6932 54.1213 62.5395 51.9114 73.3745C50.8065 74.4289 50.1108 75.0836 49.2514 73.283C48.392 71.4824 52.7298 58.3237 53.9985 57.4551Z" fill="white" stroke="white" stroke-miterlimit="1.5" stroke-linecap="round" stroke-linejoin="round"/>
<path fill-rule="evenodd" clip-rule="evenodd" d="M48.0543 79.1988V22.3277L42.4806 22.3436C42.4806 22.3436 33.7395 31.4449 26.6354 31.9032C26.6026 33.5401 26.5371 39.5312 26.5371 39.5312C26.5371 39.5312 30.9097 43.6808 30.9736 50.7783C30.9736 51.8653 34.6823 52.8884 35.7053 53.0802C35.7692 53.9115 35.5774 55.51 33.7231 55.574C33.7231 57.8759 34.4905 64.053 34.6184 64.9608C34.7462 65.8686 40.8207 63.7051 45.0408 83.1329C46.5115 81.0123 46.2167 80.3826 48.0542 79.1988" fill="black"/>
<path d="M48.0543 79.1988V22.3277L42.4806 22.3436C42.4806 22.3436 33.7395 31.4449 26.6354 31.9032C26.6026 33.5401 26.5371 39.5312 26.5371 39.5312C26.5371 39.5312 30.9097 43.6808 30.9736 50.7783C30.9736 51.8653 34.6823 52.8884 35.7053 53.0802C35.7692 53.9115 35.5774 55.51 33.7231 55.574C33.7231 57.8759 34.4905 64.053 34.6184 64.9608C34.7462 65.8686 40.8207 63.7051 45.0408 83.1329C46.5115 81.0123 46.2167 80.3826 48.0542 79.1988" stroke="black" stroke-miterlimit="1.5" stroke-linecap="round" stroke-linejoin="round"/>
<path fill-rule="evenodd" clip-rule="evenodd" d="M36.7422 42.1821C36.7422 42.1821 38.1251 37.824 33.4108 36.3364C28.6964 34.8488 30.6869 41.4068 31.567 41.6374C32.447 41.8678 32.4679 49.3059 32.8032 49.264C33.1384 49.2221 34.7308 52.9517 37.6641 49.9973C37.6641 48.0488 35.5479 45.744 36.7422 42.1821Z" fill="white" stroke="white" stroke-miterlimit="1.5" stroke-linecap="round" stroke-linejoin="round"/>
<path fill-rule="evenodd" clip-rule="evenodd" d="M42.1104 57.4551C42.1104 57.4551 40.187 59.583 39.8596 61.1381C39.5322 62.6932 41.9875 62.5395 44.1974 73.3745C45.3024 74.4289 45.998 75.0836 46.8574 73.283C47.7168 71.4824 43.379 58.3237 42.1104 57.4551Z" fill="white" stroke="white" stroke-miterlimit="1.5" stroke-linecap="round" stroke-linejoin="round"/>
</g>
<defs>
<clipPath id="clip0_241_860">
<rect width="96" height="96" fill="white"/>
</clipPath>
</defs>
</svg>
