<svg width="40" height="40" viewBox="0 0 40 40" fill="none" xmlns="http://www.w3.org/2000/svg">
<path fill-rule="evenodd" clip-rule="evenodd" d="M4.99595 17.3694C7.77476 17.3694 9.81173 15.4571 9.81173 12.6854C9.81173 9.91371 7.77603 8.00141 4.99595 8.00141C2.21715 8.00141 0.18018 9.91371 0.18018 12.6854C0.18018 15.4571 2.21592 17.3694 4.99595 17.3694ZM23.7646 17.3694C26.5434 17.3694 28.5803 15.4571 28.5803 12.6854C28.5803 9.91371 26.5434 8.00141 23.7646 8.00141C20.9858 8.00141 18.9488 9.91371 18.9488 12.6854C18.9488 15.4571 20.9858 17.3694 23.7646 17.3694ZM38.3784 17.065V11.6596C38.3784 9.05434 36.9743 8.00141 35.0769 8C33.8111 8 32.8196 8.61022 32.2418 9.6079H32.1867V8.27731H29.8743V17.065H32.2136V12.7406C32.2136 10.8273 33.0668 10.1625 34.2506 10.1625C35.378 10.1625 36.039 10.746 36.039 12.1589V17.065H38.3784ZM10.6649 10.2737V8.27731H18.1506V10.1344L13.445 15.0686H18.371V17.065H10.5548V15.1798L15.2604 10.2737H10.6649ZM4.99595 15.2079C3.56494 15.2079 2.62968 14.2092 2.62968 12.6854C2.62968 11.1602 3.56494 10.1625 4.99595 10.1625C6.42697 10.1625 7.36223 11.1602 7.36223 12.6854C7.36223 14.2106 6.42697 15.2079 4.99595 15.2079ZM23.7646 15.2079C22.3335 15.2079 21.3983 14.2092 21.3983 12.6854C21.3983 11.1602 22.3335 10.1625 23.7646 10.1625C25.1956 10.1625 26.1308 11.1602 26.1308 12.6854C26.1308 14.2106 25.1956 15.2079 23.7646 15.2079ZM30.0772 31.3003V22.5499H27.7366V25.7235H23.9914V22.5499H21.6507V31.3003H23.9914V27.7667H27.7366V31.3003H30.0772ZM17.6889 23.8193V22.5499H20.0296V31.3003H17.6889V30.1129H17.6342C17.1662 30.9406 16.1473 31.6036 14.7156 31.6036C12.3749 31.6036 10.5573 29.9204 10.5573 26.9108C10.5573 23.9298 12.4302 22.2736 14.7156 22.2736C16.1191 22.2736 17.2215 22.9367 17.6342 23.8193H17.6889ZM2.36869 24.1789C2.9468 23.1306 4.04785 22.4676 5.47957 22.4676C7.79196 22.4676 9.69155 24.1789 9.69155 26.9108C9.69155 29.6441 7.59964 31.6036 4.87331 31.6036C2.12006 31.6036 0 29.6441 0 25.973C0 21.8327 1.12921 19.2373 4.92847 18.934L8.81097 18.6306V20.8663L5.31426 21.1978C3.05704 21.4188 2.39561 22.2466 2.31357 24.1789H2.36869ZM13.0093 26.9661C13.0093 28.4297 13.9166 29.4784 15.3217 29.4784C16.7253 29.4784 17.6889 28.4015 17.6889 26.9379C17.6889 25.4472 16.7253 24.3989 15.3217 24.3989C13.9182 24.3989 13.0093 25.4757 13.0093 26.9661ZM2.4495 26.9393C2.4495 28.4568 3.49671 29.4784 4.84516 29.4784C6.19488 29.4784 7.24081 28.4568 7.24081 26.9393C7.24081 25.3934 6.19488 24.4823 4.84516 24.4823C3.49548 24.4823 2.4495 25.3934 2.4495 26.9393ZM33.8605 27.1051L37.0261 31.3003L40 31.2992L36.0906 26.5241L39.6707 22.5499H36.7791L33.8605 26.1658V22.5499H31.5198V31.3003H33.8605V27.1051Z" fill="#005BFF"/>
</svg>
