<svg width="42" height="42" viewBox="0 0 42 42" fill="none" xmlns="http://www.w3.org/2000/svg">
<path d="M34.125 38.5C34.8212 38.5 35.4889 38.2234 35.9812 37.7312C36.4734 37.2389 36.75 36.5712 36.75 35.875V29.75C36.75 29.0538 36.4734 28.3861 35.9812 27.8938C35.4889 27.4016 34.8212 27.125 34.125 27.125C32.0775 27.125 30.065 26.81 28.14 26.1625C27.6798 26.0172 27.1885 26.0008 26.7196 26.1149C26.2507 26.2291 25.822 26.4695 25.48 26.81L22.96 29.33C18.6064 26.9542 15.0283 23.3761 12.6525 19.0225L15.155 16.52C15.8725 15.8375 16.135 14.8225 15.82 13.8425C15.19 11.935 14.875 9.9225 14.875 7.875C14.875 7.17881 14.5984 6.51113 14.1062 6.01884C13.6139 5.52656 12.9462 5.25 12.25 5.25H6.125C5.42881 5.25 4.76113 5.52656 4.26884 6.01884C3.77656 6.51113 3.5 7.17881 3.5 7.875C3.5 24.7625 17.2375 38.5 34.125 38.5ZM6.125 7H12.25C12.4821 7 12.7046 7.09219 12.8687 7.25628C13.0328 7.42038 13.125 7.64294 13.125 7.875C13.125 10.115 13.475 12.3025 14.1575 14.385C14.245 14.63 14.2275 14.98 13.9475 15.26L10.5 18.69C13.3875 24.3425 17.6225 28.5775 23.2925 31.5L26.705 28.0525C26.95 27.8075 27.2825 27.7375 27.5975 27.825C29.6975 28.525 31.885 28.875 34.125 28.875C34.3571 28.875 34.5796 28.9672 34.7437 29.1313C34.9078 29.2954 35 29.5179 35 29.75V35.875C35 36.1071 34.9078 36.3296 34.7437 36.4937C34.5796 36.6578 34.3571 36.75 34.125 36.75C18.2 36.75 5.25 23.8 5.25 7.875C5.25 7.64294 5.34219 7.42038 5.50628 7.25628C5.67038 7.09219 5.89294 7 6.125 7Z" fill="#FBFBFB"/>
</svg>
