<svg width="40" height="40" viewBox="0 0 40 40" fill="none" xmlns="http://www.w3.org/2000/svg">
<path d="M35.3514 7.77019C36.2889 8.99853 37.0826 10.333 37.7163 11.7469L19.7395 25.1769L12.2266 20.4039V14.6618L19.7395 19.4348L35.3514 7.77019Z" fill="#21A038"/>
<path d="M4.55927 19.9995C4.55927 19.7418 4.56547 19.4858 4.57787 19.2314L0.0247968 19.0052C0.00929965 19.3351 5.50217e-06 19.6681 5.50217e-06 20.0041C-0.0019317 22.6299 0.507688 25.2301 1.49964 27.6557C2.49159 30.0815 3.94634 32.2847 5.78045 34.1393L9.01005 30.8678C7.59823 29.4427 6.47822 27.7489 5.7144 25.8838C4.95058 24.0186 4.55802 22.0188 4.55927 19.9995Z" fill="url(#paint0_linear_218_869)"/>
<path d="M19.7355 4.62032C19.9896 4.62032 20.2422 4.62974 20.4932 4.6423L20.7211 0.0263953C20.3947 0.0106896 20.0661 0.00283771 19.7355 0.00283771C17.1434 -0.000365874 14.5763 0.515367 12.1814 1.52042C9.78659 2.52548 7.61123 4.00007 5.78027 5.85951L9.00988 9.13258C10.4161 7.70128 12.0876 6.56579 13.9283 5.79142C15.769 5.01705 17.7425 4.61904 19.7355 4.62032Z" fill="url(#paint1_linear_218_869)"/>
<path d="M19.7361 35.3799C19.482 35.3799 19.2294 35.3799 18.9768 35.3595L18.749 39.9738C19.0765 39.9905 19.4056 39.999 19.7361 39.999C22.3272 40.0017 24.8931 39.4856 27.2866 38.4803C29.6802 37.4749 31.8541 36.0001 33.6837 34.1407L30.4603 30.8692C29.0538 32.2998 27.3825 33.4346 25.5422 34.2087C23.7019 34.9828 21.7287 35.3809 19.7361 35.3799Z" fill="url(#paint2_linear_218_869)"/>
<path d="M28.2902 7.30319L32.1273 4.43689C28.6202 1.55876 24.2423 -0.00798939 19.7295 3.06379e-05V4.61908C22.7854 4.61524 25.7703 5.55117 28.2902 7.30319Z" fill="url(#paint3_linear_218_869)"/>
<path d="M39.4702 20.0002C39.4727 18.7986 39.369 17.599 39.1602 16.4161L34.9125 19.5887C34.9125 19.7254 34.9125 19.862 34.9125 20.0002C34.9136 22.1492 34.4691 24.2744 33.6079 26.2381C32.7466 28.2019 31.4878 29.9603 29.9131 31.3994L32.9769 34.8311C35.0242 32.958 36.6601 30.6699 37.7787 28.115C38.8974 25.56 39.4737 22.7953 39.4702 20.0002Z" fill="#21A038"/>
<path d="M19.7356 35.3803C17.6149 35.381 15.5178 34.9304 13.5799 34.0576C11.6421 33.1849 9.90668 31.9093 8.48613 30.3136L5.10156 33.4171C6.94953 35.4922 9.20724 37.1504 11.7283 38.2844C14.2493 39.4183 16.9773 40.0026 19.7356 39.9993V35.3803Z" fill="url(#paint4_linear_218_869)"/>
<path d="M9.55867 8.60008L6.49642 5.16838C4.44858 7.04109 2.81201 9.32912 1.69285 11.8841C0.573697 14.439 -0.0030512 17.2039 1.21392e-05 19.9993H4.55928C4.55834 17.8504 5.0029 15.7251 5.86412 13.7614C6.72535 11.7978 7.98405 10.0393 9.55867 8.60008Z" fill="url(#paint5_linear_218_869)"/>
<defs>
<linearGradient id="paint0_linear_218_869" x1="6.70253" y1="33.5629" x2="1.60155" y2="19.0128" gradientUnits="userSpaceOnUse">
<stop offset="0.14" stop-color="#F1E813"/>
<stop offset="0.3" stop-color="#E6E418"/>
<stop offset="0.58" stop-color="#C9DA26"/>
<stop offset="0.89" stop-color="#A2CC39"/>
</linearGradient>
<linearGradient id="paint1_linear_218_869" x1="7.08203" y1="6.6762" x2="19.9552" y2="1.83557" gradientUnits="userSpaceOnUse">
<stop offset="0.06" stop-color="#0FA7DF"/>
<stop offset="0.54" stop-color="#0098F8"/>
<stop offset="0.92" stop-color="#0290EA"/>
</linearGradient>
<linearGradient id="paint2_linear_218_869" x1="18.4484" y1="37.2112" x2="32.9754" y2="33.9729" gradientUnits="userSpaceOnUse">
<stop offset="0.12" stop-color="#A2CC39"/>
<stop offset="0.28" stop-color="#86C239"/>
<stop offset="0.87" stop-color="#219F38"/>
</linearGradient>
<linearGradient id="paint3_linear_218_869" x1="18.7811" y1="1.54704" x2="31.2135" y2="5.3327" gradientUnits="userSpaceOnUse">
<stop offset="0.06" stop-color="#0290EA"/>
<stop offset="0.79" stop-color="#0C89CA"/>
</linearGradient>
<linearGradient id="paint4_linear_218_869" x1="6.24525" y1="32.8548" x2="19.7902" y2="37.8498" gradientUnits="userSpaceOnUse">
<stop offset="0.13" stop-color="#F1E813"/>
<stop offset="0.3" stop-color="#EAE616"/>
<stop offset="0.53" stop-color="#D8DF1F"/>
<stop offset="0.8" stop-color="#BAD52D"/>
<stop offset="0.98" stop-color="#A2CC39"/>
</linearGradient>
<linearGradient id="paint5_linear_218_869" x1="1.6985" y1="20.5584" x2="7.24536" y2="6.3206" gradientUnits="userSpaceOnUse">
<stop offset="0.07" stop-color="#A2CC39"/>
<stop offset="0.26" stop-color="#81C45E"/>
<stop offset="0.92" stop-color="#0FA7DF"/>
</linearGradient>
</defs>
</svg>
