<svg width="51" height="51" viewBox="0 0 51 51" fill="none" xmlns="http://www.w3.org/2000/svg">
<path d="M33.6636 37.8715C34.7796 37.8715 35.8499 38.3148 36.6391 39.104C37.4282 39.8931 37.8716 40.9634 37.8716 42.0794C37.8716 43.1955 37.4282 44.2658 36.6391 45.0549C35.8499 45.844 34.7796 46.2874 33.6636 46.2874C32.5476 46.2874 31.4773 45.844 30.6881 45.0549C29.899 44.2658 29.4557 43.1955 29.4557 42.0794C29.4557 40.9634 29.899 39.8931 30.6881 39.104C31.4773 38.3148 32.5476 37.8715 33.6636 37.8715ZM33.6636 39.9755C33.1056 39.9755 32.5704 40.1971 32.1759 40.5917C31.7813 40.9863 31.5596 41.5214 31.5596 42.0794C31.5596 42.6374 31.7813 43.1726 32.1759 43.5672C32.5704 43.9617 33.1056 44.1834 33.6636 44.1834C34.2216 44.1834 34.7568 43.9617 35.1513 43.5672C35.5459 43.1726 35.7676 42.6374 35.7676 42.0794C35.7676 41.5214 35.5459 40.9863 35.1513 40.5917C34.7568 40.1971 34.2216 39.9755 33.6636 39.9755ZM14.7278 37.8715C15.8439 37.8715 16.9142 38.3148 17.7033 39.104C18.4925 39.8931 18.9358 40.9634 18.9358 42.0794C18.9358 43.1955 18.4925 44.2658 17.7033 45.0549C16.9142 45.844 15.8439 46.2874 14.7278 46.2874C13.6118 46.2874 12.5415 45.844 11.7524 45.0549C10.9632 44.2658 10.5199 43.1955 10.5199 42.0794C10.5199 40.9634 10.9632 39.8931 11.7524 39.104C12.5415 38.3148 13.6118 37.8715 14.7278 37.8715ZM14.7278 39.9755C14.1698 39.9755 13.6347 40.1971 13.2401 40.5917C12.8455 40.9863 12.6239 41.5214 12.6239 42.0794C12.6239 42.6374 12.8455 43.1726 13.2401 43.5672C13.6347 43.9617 14.1698 44.1834 14.7278 44.1834C15.2859 44.1834 15.821 43.9617 16.2156 43.5672C16.6101 43.1726 16.8318 42.6374 16.8318 42.0794C16.8318 41.5214 16.6101 40.9863 16.2156 40.5917C15.821 40.1971 15.2859 39.9755 14.7278 39.9755ZM37.8716 12.6238H8.984L14.3491 25.2477H31.5596C32.2539 25.2477 32.8641 24.911 33.2428 24.4061L39.5547 15.9902C39.8282 15.6325 39.9755 15.1907 39.9755 14.7278C39.9755 14.1698 39.7539 13.6346 39.3593 13.24C38.9647 12.8455 38.4296 12.6238 37.8716 12.6238ZM31.5596 27.3516H14.4543L12.8343 30.6338L12.6239 31.5596C12.6239 32.1176 12.8455 32.6527 13.2401 33.0473C13.6347 33.4419 14.1698 33.6635 14.7278 33.6635H37.8716V35.7675H14.7278C13.6118 35.7675 12.5415 35.3242 11.7524 34.535C10.9632 33.7459 10.5199 32.6756 10.5199 31.5596C10.5193 30.8457 10.7003 30.1434 11.0459 29.5187L12.5608 26.4259L4.92333 8.41586H2.104V6.31189H6.31195L8.10033 10.5198H37.8716C38.9876 10.5198 40.0579 10.9632 40.847 11.7523C41.6362 12.5415 42.0795 13.6118 42.0795 14.7278C42.0795 15.7798 41.7218 16.6634 41.1327 17.3788L35.0101 25.5632C34.2527 26.6363 32.9903 27.3516 31.5596 27.3516Z" fill="url(#paint0_linear_310_2477)"/>
<defs>
<linearGradient id="paint0_linear_310_2477" x1="2.104" y1="26.2996" x2="42.0795" y2="26.2996" gradientUnits="userSpaceOnUse">
<stop stop-color="#FFCD4E"/>
<stop offset="1" stop-color="#FFE092"/>
</linearGradient>
</defs>
</svg>
